<svg width="16" height="16" viewBox="0 0 16 16" fill="none" xmlns="http://www.w3.org/2000/svg">
<g clip-path="url(#clip0)">
<path fill-rule="evenodd" clip-rule="evenodd" d="M3.33301 3.33345C2.96482 3.33345 2.66634 3.63193 2.66634 4.00012V13.3335C2.66634 13.7016 2.96482 14.0001 3.33301 14.0001H12.6663C13.0345 14.0001 13.333 13.7016 13.333 13.3335V4.00012C13.333 3.63193 13.0345 3.33345 12.6663 3.33345H3.33301ZM1.33301 4.00012C1.33301 2.89555 2.22844 2.00012 3.33301 2.00012H12.6663C13.7709 2.00012 14.6663 2.89555 14.6663 4.00012V13.3335C14.6663 14.438 13.7709 15.3335 12.6663 15.3335H3.33301C2.22844 15.3335 1.33301 14.438 1.33301 13.3335V4.00012Z" fill="#66C5E1"/>
<path fill-rule="evenodd" clip-rule="evenodd" d="M10.6667 0.666785C11.0349 0.666785 11.3333 0.965262 11.3333 1.33345V4.00012C11.3333 4.36831 11.0349 4.66678 10.6667 4.66678C10.2985 4.66678 10 4.36831 10 4.00012V1.33345C10 0.965262 10.2985 0.666785 10.6667 0.666785Z" fill="#66C5E1"/>
<path fill-rule="evenodd" clip-rule="evenodd" d="M5.33366 0.666785C5.70185 0.666785 6.00033 0.965262 6.00033 1.33345V4.00012C6.00033 4.36831 5.70185 4.66678 5.33366 4.66678C4.96547 4.66678 4.66699 4.36831 4.66699 4.00012V1.33345C4.66699 0.965262 4.96547 0.666785 5.33366 0.666785Z" fill="#66C5E1"/>
<path fill-rule="evenodd" clip-rule="evenodd" d="M1.33301 6.66679C1.33301 6.2986 1.63148 6.00012 1.99967 6.00012H13.9997C14.3679 6.00012 14.6663 6.2986 14.6663 6.66679C14.6663 7.03497 14.3679 7.33345 13.9997 7.33345H1.99967C1.63148 7.33345 1.33301 7.03497 1.33301 6.66679Z" fill="#66C5E1"/>
</g>
<defs>
<clipPath id="clip0">
<rect width="16" height="16" fill="white" transform="translate(0 0.000118256)"/>
</clipPath>
</defs>
</svg>
