<svg width="20" height="20" viewBox="0 0 20 20" fill="none" xmlns="http://www.w3.org/2000/svg">
<path fill-rule="evenodd" clip-rule="evenodd" d="M4.1665 4.16667C3.70627 4.16667 3.33317 4.53976 3.33317 5V16.6667C3.33317 17.1269 3.70627 17.5 4.1665 17.5H15.8332C16.2934 17.5 16.6665 17.1269 16.6665 16.6667V5C16.6665 4.53976 16.2934 4.16667 15.8332 4.16667H4.1665ZM1.6665 5C1.6665 3.61929 2.78579 2.5 4.1665 2.5H15.8332C17.2139 2.5 18.3332 3.61929 18.3332 5V16.6667C18.3332 18.0474 17.2139 19.1667 15.8332 19.1667H4.1665C2.78579 19.1667 1.6665 18.0474 1.6665 16.6667V5Z" fill="#242735"/>
<path fill-rule="evenodd" clip-rule="evenodd" d="M13.3333 0.833374C13.7936 0.833374 14.1667 1.20647 14.1667 1.66671V5.00004C14.1667 5.46028 13.7936 5.83337 13.3333 5.83337C12.8731 5.83337 12.5 5.46028 12.5 5.00004V1.66671C12.5 1.20647 12.8731 0.833374 13.3333 0.833374Z" fill="#242735"/>
<path fill-rule="evenodd" clip-rule="evenodd" d="M6.66683 0.833374C7.12707 0.833374 7.50016 1.20647 7.50016 1.66671V5.00004C7.50016 5.46028 7.12707 5.83337 6.66683 5.83337C6.20659 5.83337 5.8335 5.46028 5.8335 5.00004V1.66671C5.8335 1.20647 6.20659 0.833374 6.66683 0.833374Z" fill="#242735"/>
<path fill-rule="evenodd" clip-rule="evenodd" d="M1.6665 8.33333C1.6665 7.8731 2.0396 7.5 2.49984 7.5H17.4998C17.9601 7.5 18.3332 7.8731 18.3332 8.33333C18.3332 8.79357 17.9601 9.16667 17.4998 9.16667H2.49984C2.0396 9.16667 1.6665 8.79357 1.6665 8.33333Z" fill="#242735"/>
</svg>
