<svg width="22" height="21" viewBox="0 0 22 21" fill="none" xmlns="http://www.w3.org/2000/svg">
<path d="M11 20.5C5 20.5 1 16 1 10" stroke="#242735"/>
<circle cx="11.5" cy="10" r="9.5" fill="#242735" stroke="white"/>
<path fill-rule="evenodd" clip-rule="evenodd" d="M7.96433 5.28596C7.63889 4.96052 7.11126 4.96052 6.78582 5.28596C6.46038 5.61139 6.46038 6.13903 6.78582 6.46447L10.3214 10L6.78582 13.5355C6.46038 13.861 6.46038 14.3886 6.78582 14.714C7.11126 15.0395 7.6389 15.0395 7.96433 14.714L11.4999 11.1785L15.0354 14.714C15.3608 15.0395 15.8885 15.0395 16.2139 14.714C16.5393 14.3886 16.5393 13.861 16.2139 13.5355L12.6784 10L16.2139 6.46447C16.5393 6.13903 16.5393 5.61139 16.2139 5.28596C15.8885 4.96052 15.3608 4.96052 15.0354 5.28596L11.4999 8.82149L7.96433 5.28596Z" fill="white"/>
</svg>
