<svg width="15" height="16" viewBox="0 0 15 16" fill="none" xmlns="http://www.w3.org/2000/svg">
<path fill-rule="evenodd" clip-rule="evenodd" d="M5.69494 2.19544C5.81996 2.07041 5.98953 2.00018 6.16634 2.00018H8.83301C9.00982 2.00018 9.17939 2.07041 9.30441 2.19544C9.42944 2.32046 9.49967 2.49003 9.49967 2.66684V3.33351H5.49967V2.66684C5.49967 2.49003 5.56991 2.32046 5.69494 2.19544ZM4.16634 3.33351V2.66684C4.16634 2.13641 4.37706 1.6277 4.75213 1.25263C5.1272 0.877557 5.63591 0.666843 6.16634 0.666843H8.83301C9.36344 0.666843 9.87215 0.877557 10.2472 1.25263C10.6223 1.6277 10.833 2.13641 10.833 2.66684V3.33351H12.1663H13.4997C13.8679 3.33351 14.1663 3.63199 14.1663 4.00018C14.1663 4.36837 13.8679 4.66684 13.4997 4.66684H12.833V13.3335C12.833 13.8639 12.6223 14.3727 12.2472 14.7477C11.8721 15.1228 11.3634 15.3335 10.833 15.3335H4.16634C3.63591 15.3335 3.1272 15.1228 2.75213 14.7477C2.37705 14.3726 2.16634 13.8639 2.16634 13.3335V4.66684H1.49967C1.13148 4.66684 0.833008 4.36837 0.833008 4.00018C0.833008 3.63199 1.13148 3.33351 1.49967 3.33351H2.83301H4.16634ZM3.49967 4.66684V13.3335C3.49967 13.5103 3.56991 13.6799 3.69494 13.8049C3.81996 13.9299 3.98953 14.0002 4.16634 14.0002H10.833C11.0098 14.0002 11.1794 13.9299 11.3044 13.8049C11.4294 13.6799 11.4997 13.5103 11.4997 13.3335V4.66684H3.49967ZM6.16634 6.66684C6.53453 6.66684 6.83301 6.96532 6.83301 7.33351V11.3335C6.83301 11.7017 6.53453 12.0002 6.16634 12.0002C5.79815 12.0002 5.49967 11.7017 5.49967 11.3335V7.33351C5.49967 6.96532 5.79815 6.66684 6.16634 6.66684ZM9.49967 7.33351C9.49967 6.96532 9.2012 6.66684 8.83301 6.66684C8.46482 6.66684 8.16634 6.96532 8.16634 7.33351V11.3335C8.16634 11.7017 8.46482 12.0002 8.83301 12.0002C9.2012 12.0002 9.49967 11.7017 9.49967 11.3335V7.33351Z" fill="black"/>
</svg>
