<svg width="12" height="13" viewBox="0 0 12 13" fill="none" xmlns="http://www.w3.org/2000/svg">
<path fill-rule="evenodd" clip-rule="evenodd" d="M9.8118 1.99996C9.69954 1.99996 9.58837 2.02207 9.48465 2.06503C9.38093 2.108 9.28669 2.17097 9.20731 2.25035L2.0702 9.38746L1.61683 11.0498L3.27918 10.5964L10.4163 3.45933C10.4957 3.37995 10.5586 3.28571 10.6016 3.18199C10.6446 3.07827 10.6667 2.96711 10.6667 2.85484C10.6667 2.74257 10.6446 2.63141 10.6016 2.52769C10.5586 2.42397 10.4957 2.32973 10.4163 2.25035C10.3369 2.17097 10.2427 2.108 10.139 2.06503C10.0352 2.02207 9.92407 1.99996 9.8118 1.99996ZM8.97441 0.833194C9.23989 0.723226 9.52444 0.666626 9.8118 0.666626C10.0992 0.666626 10.3837 0.723226 10.6492 0.833194C10.9147 0.943162 11.1559 1.10434 11.3591 1.30754C11.5623 1.51073 11.7235 1.75196 11.8334 2.01745C11.9434 2.28293 12 2.56748 12 2.85484C12 3.1422 11.9434 3.42675 11.8334 3.69223C11.7235 3.95772 11.5623 4.19895 11.3591 4.40214L4.0968 11.6644C4.01476 11.7465 3.91274 11.8057 3.80081 11.8362L0.842094 12.6431C0.611286 12.7061 0.364444 12.6405 0.195278 12.4714C0.0261108 12.3022 -0.0394414 12.0554 0.0235062 11.8245L0.830429 8.86583C0.860955 8.7539 0.920163 8.65188 1.0022 8.56984L8.2645 1.30754C8.4677 1.10434 8.70892 0.943162 8.97441 0.833194Z" fill="#66C5E1"/>
</svg>
