<svg width="12" height="13" viewBox="0 0 12 13" fill="none" xmlns="http://www.w3.org/2000/svg">
<path fill-rule="evenodd" clip-rule="evenodd" d="M9.8118 1.99984C9.69954 1.99984 9.58837 2.02195 9.48465 2.06491C9.38093 2.10787 9.28669 2.17084 9.20731 2.25023L2.0702 9.38734L1.61683 11.0497L3.27918 10.5963L10.4163 3.45921C10.4957 3.37983 10.5586 3.28558 10.6016 3.18187C10.6446 3.07815 10.6667 2.96698 10.6667 2.85472C10.6667 2.74245 10.6446 2.63129 10.6016 2.52757C10.5586 2.42385 10.4957 2.32961 10.4163 2.25023C10.3369 2.17084 10.2427 2.10787 10.139 2.06491C10.0352 2.02195 9.92407 1.99984 9.8118 1.99984ZM8.97441 0.833072C9.23989 0.723104 9.52444 0.666504 9.8118 0.666504C10.0992 0.666504 10.3837 0.723104 10.6492 0.833072C10.9147 0.94304 11.1559 1.10422 11.3591 1.30742C11.5623 1.51061 11.7235 1.75184 11.8334 2.01732C11.9434 2.28281 12 2.56736 12 2.85472C12 3.14208 11.9434 3.42662 11.8334 3.69211C11.7235 3.9576 11.5623 4.19882 11.3591 4.40202L4.0968 11.6643C4.01476 11.7464 3.91274 11.8056 3.80081 11.8361L0.842094 12.643C0.611286 12.706 0.364444 12.6404 0.195278 12.4712C0.0261108 12.3021 -0.0394414 12.0552 0.0235062 11.8244L0.830429 8.86571C0.860955 8.75378 0.920163 8.65176 1.0022 8.56972L8.2645 1.30742C8.4677 1.10422 8.70892 0.94304 8.97441 0.833072Z" fill="black"/>
</svg>
