<svg width="17" height="17" viewBox="0 0 17 17" fill="none" xmlns="http://www.w3.org/2000/svg">
<g clip-path="url(#clip0)">
<path fill-rule="evenodd" clip-rule="evenodd" d="M8.49967 6.67025C7.76329 6.67025 7.16634 7.2672 7.16634 8.00358C7.16634 8.73996 7.76329 9.33691 8.49967 9.33691C9.23605 9.33691 9.83301 8.73996 9.83301 8.00358C9.83301 7.2672 9.23605 6.67025 8.49967 6.67025ZM5.83301 8.00358C5.83301 6.53082 7.02692 5.33691 8.49967 5.33691C9.97243 5.33691 11.1663 6.53082 11.1663 8.00358C11.1663 9.47634 9.97243 10.6702 8.49967 10.6702C7.02692 10.6702 5.83301 9.47634 5.83301 8.00358Z" fill="#66C5E1"/>
<path fill-rule="evenodd" clip-rule="evenodd" d="M8.5 1.337C8.32319 1.337 8.15362 1.40723 8.0286 1.53226C7.90357 1.65728 7.83333 1.82685 7.83333 2.00366V2.11965C7.83196 2.46419 7.72986 2.80081 7.53963 3.08807C7.34939 3.37533 7.0793 3.6007 6.76262 3.73642C6.70625 3.76058 6.64695 3.77679 6.58641 3.78471C6.29865 3.88547 5.98888 3.91031 5.68733 3.85564C5.34 3.79266 5.0195 3.62707 4.76716 3.38024L4.7619 3.3751L4.72193 3.33507C4.66001 3.27308 4.58623 3.22365 4.50529 3.1901C4.42436 3.15655 4.33761 3.13928 4.25 3.13928C4.16239 3.13928 4.07564 3.15655 3.99471 3.1901C3.91377 3.22365 3.84025 3.27282 3.77833 3.3348L3.77781 3.33533C3.71582 3.39724 3.66665 3.47077 3.6331 3.5517C3.59955 3.63263 3.58228 3.71939 3.58228 3.807C3.58228 3.89461 3.59955 3.98136 3.6331 4.06229C3.66665 4.14322 3.71582 4.21675 3.77781 4.27866L3.82327 4.32412C4.07011 4.57647 4.23566 4.897 4.29864 5.24433C4.36036 5.58475 4.32075 5.93564 4.18497 6.25351C4.06126 6.57788 3.84465 6.85878 3.56203 7.06092C3.2737 7.26714 2.92999 7.38186 2.57559 7.39015L2.56 7.39033H2.5C2.32319 7.39033 2.15362 7.46057 2.0286 7.58559C1.90357 7.71062 1.83333 7.88019 1.83333 8.057C1.83333 8.23381 1.90357 8.40338 2.0286 8.5284C2.15362 8.65342 2.32319 8.72366 2.5 8.72366H2.61599C2.96053 8.72504 3.29715 8.82713 3.58441 9.01737C3.87067 9.20695 4.09547 9.47582 4.23134 9.79108C4.37272 10.1132 4.41474 10.4702 4.35197 10.8163C4.289 11.1637 4.12341 11.4842 3.87658 11.7365L3.87143 11.7418L3.8314 11.7817C3.76942 11.8436 3.71999 11.9174 3.68644 11.9984C3.65289 12.0793 3.63562 12.1661 3.63562 12.2537C3.63562 12.3413 3.65289 12.428 3.68644 12.509C3.71999 12.5899 3.76916 12.6634 3.83114 12.7253L3.83167 12.7259C3.89358 12.7878 3.96711 12.837 4.04804 12.8706C4.12897 12.9041 4.21572 12.9214 4.30333 12.9214C4.39094 12.9214 4.47769 12.9041 4.55863 12.8706C4.63956 12.837 4.71309 12.7878 4.775 12.7259L4.82046 12.6804C5.07281 12.4336 5.39334 12.268 5.74067 12.205C6.08108 12.1433 6.43197 12.1829 6.74985 12.3187C7.07422 12.4424 7.35511 12.659 7.55725 12.9416C7.76348 13.23 7.87819 13.5737 7.88648 13.9281L7.88667 13.9437V14.0037C7.88667 14.1805 7.9569 14.35 8.08193 14.4751C8.20695 14.6001 8.37652 14.6703 8.55333 14.6703C8.73014 14.6703 8.89971 14.6001 9.02474 14.4751C9.14976 14.35 9.22 14.1805 9.22 14.0037V13.8903L9.22001 13.8877C9.22138 13.5431 9.32347 13.2065 9.51371 12.9193C9.7033 12.633 9.9722 12.4082 10.2875 12.2723C10.6096 12.1309 10.9665 12.0889 11.3127 12.1517C11.66 12.2147 11.9805 12.3802 12.2328 12.6271L12.2381 12.6322L12.2781 12.6723C12.34 12.7342 12.4138 12.7837 12.4947 12.8172C12.5756 12.8508 12.6624 12.868 12.75 12.868C12.8376 12.868 12.9244 12.8508 13.0053 12.8172C13.0862 12.7837 13.1598 12.7345 13.2217 12.6725L13.2222 12.672C13.2842 12.6101 13.3333 12.5366 13.3669 12.4556C13.4004 12.3747 13.4177 12.2879 13.4177 12.2003C13.4177 12.1127 13.4004 12.026 13.3669 11.945C13.3333 11.8641 13.2842 11.7906 13.2222 11.7287L13.1767 11.6832C12.9299 11.4309 12.7643 11.1103 12.7014 10.763C12.6386 10.4169 12.6806 10.0599 12.822 9.73782C12.9578 9.42253 13.1826 9.15363 13.4689 8.96404C13.7562 8.7738 14.0928 8.67171 14.4373 8.67033L14.44 8.67032L14.5 8.67033C14.6768 8.67033 14.8464 8.60009 14.9714 8.47507C15.0964 8.35004 15.1667 8.18047 15.1667 8.00366C15.1667 7.82685 15.0964 7.65728 14.9714 7.53226C14.8464 7.40723 14.6768 7.337 14.5 7.337H14.3867L14.384 7.33699C14.0395 7.33562 13.7029 7.23353 13.4156 7.04329C13.1283 6.85305 12.903 6.58297 12.7672 6.26628C12.7431 6.20991 12.7269 6.15061 12.719 6.09007C12.6182 5.80231 12.5933 5.49255 12.648 5.191C12.711 4.84367 12.8766 4.52316 13.1234 4.27082L13.1286 4.26556L13.1686 4.22559C13.2306 4.16368 13.28 4.08989 13.3136 4.00896C13.3471 3.92802 13.3644 3.84127 13.3644 3.75366C13.3644 3.66605 13.3471 3.5793 13.3136 3.49837C13.28 3.41744 13.2308 3.34391 13.1689 3.282L13.1683 3.28147C13.1064 3.21949 13.0329 3.17031 12.952 3.13676C12.871 3.10321 12.7843 3.08595 12.6967 3.08595C12.6091 3.08595 12.5223 3.10321 12.4414 3.13676C12.3604 3.17031 12.2869 3.21949 12.225 3.28147L12.1795 3.32693C11.9272 3.57377 11.6067 3.73933 11.2593 3.8023C10.9132 3.86507 10.5562 3.82305 10.2341 3.68167C9.91882 3.5458 9.64995 3.321 9.46037 3.03474C9.27014 2.74748 9.16805 2.41086 9.16667 2.06632L9.16667 2.06366V2.00366C9.16667 1.82685 9.09643 1.65728 8.97141 1.53226C8.84638 1.40723 8.67681 1.337 8.5 1.337ZM13.4333 10.0037L14.0432 10.2728C14.0083 10.3521 13.9979 10.4399 14.0133 10.5251C14.0286 10.6094 14.0685 10.6872 14.1279 10.7488L14.1645 10.7853C14.1646 10.7854 14.1644 10.7852 14.1645 10.7853C14.3503 10.971 14.498 11.1918 14.5986 11.4344C14.6992 11.6772 14.751 11.9375 14.751 12.2003C14.751 12.4632 14.6992 12.7234 14.5986 12.9662C14.4979 13.209 14.3504 13.4296 14.1645 13.6153L13.6933 13.1437L14.165 13.6148C13.9793 13.8008 13.7587 13.9483 13.5159 14.0489C13.2731 14.1496 13.0128 14.2014 12.75 14.2014C12.4872 14.2014 12.2269 14.1496 11.9841 14.0489C11.7414 13.9483 11.521 13.8009 11.3353 13.6151C11.3352 13.615 11.3353 13.6152 11.3353 13.6151L11.2984 13.5782C11.2369 13.5188 11.159 13.4789 11.0748 13.4636C10.9896 13.4482 10.9017 13.4586 10.8225 13.4936L10.816 13.4965C10.7383 13.5297 10.672 13.585 10.6254 13.6555C10.5789 13.7256 10.5539 13.8078 10.5533 13.892V14.0037C10.5533 14.5341 10.3426 15.0428 9.96755 15.4179C9.59247 15.7929 9.08377 16.0037 8.55333 16.0037C8.0229 16.0037 7.51419 15.7929 7.13912 15.4179C6.76405 15.0428 6.55333 14.5341 6.55333 14.0037V13.9532C6.55017 13.8684 6.52218 13.7864 6.47276 13.7173C6.42218 13.6466 6.35149 13.5927 6.26988 13.5627C6.2567 13.5578 6.24367 13.5526 6.23082 13.5469C6.15161 13.5119 6.06374 13.5015 5.97855 13.517C5.89428 13.5322 5.81645 13.5721 5.75487 13.6316L5.71833 13.6681C5.71825 13.6682 5.71842 13.6681 5.71833 13.6681C5.53264 13.854 5.3119 14.0017 5.06921 14.1023C4.82642 14.2029 4.56617 14.2547 4.30333 14.2547C4.0405 14.2547 3.78025 14.2029 3.53745 14.1023C3.29489 14.0017 3.0745 13.8544 2.88886 13.6687C2.7029 13.4829 2.55539 13.2623 2.45474 13.0195C2.35409 12.7767 2.30228 12.5165 2.30228 12.2537C2.30228 11.9908 2.35409 11.7306 2.45474 11.4878C2.55539 11.245 2.7029 11.0244 2.88886 10.8387L2.92541 10.8021C2.98486 10.7405 3.02475 10.6627 3.04003 10.5784C3.05548 10.4933 3.04505 10.4054 3.01009 10.3262L3.0072 10.3196C2.97391 10.242 2.91867 10.1757 2.84821 10.129C2.77803 10.0826 2.69583 10.0575 2.61167 10.057H2.5C1.96957 10.057 1.46086 9.84628 1.08579 9.47121C0.710714 9.09614 0.5 8.58743 0.5 8.057C0.5 7.52656 0.710714 7.01785 1.08579 6.64278C1.46086 6.26771 1.96957 6.057 2.5 6.057H2.55043C2.63522 6.05383 2.71728 6.02584 2.78637 5.97642C2.85709 5.92584 2.91096 5.85515 2.94098 5.77354C2.94582 5.76036 2.95109 5.74733 2.95676 5.73449C2.99172 5.65527 3.00215 5.5674 2.9867 5.48221C2.97142 5.39794 2.93152 5.32012 2.87206 5.25854L2.83552 5.222C2.64957 5.03625 2.50205 4.81567 2.40141 4.57288C2.30076 4.33008 2.24895 4.06983 2.24895 3.807C2.24895 3.54416 2.30076 3.28391 2.40141 3.04111C2.50201 2.79843 2.64943 2.57795 2.83526 2.39226C3.02095 2.20643 3.24144 2.059 3.48412 1.9584C3.72692 1.85775 3.98717 1.80595 4.25 1.80595C4.51283 1.80595 4.77308 1.85775 5.01588 1.9584C5.25868 2.05905 5.47925 2.20657 5.665 2.39252L5.70154 2.42906C5.76312 2.48851 5.84095 2.52842 5.92521 2.54369C6.01041 2.55914 6.09828 2.54871 6.17749 2.51375C6.22018 2.49491 6.26462 2.48066 6.31005 2.47114C6.35653 2.43959 6.39666 2.39915 6.42796 2.35187C6.47444 2.28169 6.49947 2.19949 6.5 2.11533V2.00366C6.5 1.47323 6.71071 0.964521 7.08579 0.589449C7.46086 0.214376 7.96957 0.00366211 8.5 0.00366211C9.03043 0.00366211 9.53914 0.214376 9.91421 0.589449C10.2893 0.964521 10.5 1.47323 10.5 2.00366V2.06199C10.5005 2.14616 10.5256 2.22836 10.572 2.29854C10.6187 2.369 10.6849 2.42428 10.7626 2.45757L10.7692 2.46039C10.8484 2.49535 10.9363 2.50581 11.0215 2.49036C11.1057 2.47508 11.1835 2.43519 11.2451 2.37574L11.2817 2.33919C11.4674 2.15323 11.688 2.00572 11.9308 1.90507C12.1736 1.80442 12.4338 1.75261 12.6967 1.75261C12.9595 1.75261 13.2198 1.80442 13.4625 1.90507C13.7053 2.00572 13.9259 2.15323 14.1117 2.33919C14.2974 2.52482 14.4447 2.74521 14.5453 2.98778C14.6459 3.23058 14.6977 3.49083 14.6977 3.75366C14.6977 4.01649 14.6459 4.27675 14.5453 4.51954C14.4447 4.76223 14.2972 4.98271 14.1114 5.1684C14.1113 5.16849 14.1115 5.16831 14.1114 5.1684L14.0746 5.2052C14.0151 5.26678 13.9752 5.34461 13.96 5.42888C13.9445 5.51407 13.9549 5.60194 13.9899 5.68115C14.0087 5.72384 14.023 5.76828 14.0325 5.81371C14.0641 5.86019 14.1045 5.90032 14.1518 5.93163C14.222 5.97811 14.3042 6.00313 14.3883 6.00366H14.5C15.0304 6.00366 15.5391 6.21438 15.9142 6.58945C16.2893 6.96452 16.5 7.47323 16.5 8.00366C16.5 8.5341 16.2893 9.0428 15.9142 9.41788C15.5391 9.79295 15.0304 10.0037 14.5 10.0037H14.4417C14.3575 10.0042 14.2753 10.0292 14.2051 10.0757C14.1347 10.1224 14.0794 10.1886 14.0461 10.2663L13.4333 10.0037Z" fill="#66C5E1"/>
</g>
<defs>
<clipPath id="clip0">
<rect width="16" height="16" fill="white" transform="translate(0.5 0.00366211)"/>
</clipPath>
</defs>
</svg>
