<svg width="14" height="16" viewBox="0 0 14 16" fill="none" xmlns="http://www.w3.org/2000/svg">
<path fill-rule="evenodd" clip-rule="evenodd" d="M5.19543 2.1951C5.32045 2.07007 5.49002 1.99984 5.66683 1.99984H8.3335C8.51031 1.99984 8.67988 2.07007 8.8049 2.1951C8.92992 2.32012 9.00016 2.48969 9.00016 2.6665V3.33317H5.00016V2.6665C5.00016 2.48969 5.0704 2.32012 5.19543 2.1951ZM3.66683 3.33317V2.6665C3.66683 2.13607 3.87754 1.62736 4.25262 1.25229C4.62769 0.877218 5.1364 0.666504 5.66683 0.666504H8.3335C8.86393 0.666504 9.37264 0.877218 9.74771 1.25229C10.1228 1.62736 10.3335 2.13607 10.3335 2.6665V3.33317H11.6668H13.0002C13.3684 3.33317 13.6668 3.63165 13.6668 3.99984C13.6668 4.36803 13.3684 4.6665 13.0002 4.6665H12.3335V13.3332C12.3335 13.8636 12.1228 14.3723 11.7477 14.7474C11.3726 15.1225 10.8639 15.3332 10.3335 15.3332H3.66683C3.1364 15.3332 2.62769 15.1225 2.25262 14.7474C1.87754 14.3723 1.66683 13.8636 1.66683 13.3332V4.6665H1.00016C0.631973 4.6665 0.333496 4.36803 0.333496 3.99984C0.333496 3.63165 0.631973 3.33317 1.00016 3.33317H2.3335H3.66683ZM3.00016 4.6665V13.3332C3.00016 13.51 3.0704 13.6795 3.19543 13.8046C3.32045 13.9296 3.49002 13.9998 3.66683 13.9998H10.3335C10.5103 13.9998 10.6799 13.9296 10.8049 13.8046C10.9299 13.6795 11.0002 13.51 11.0002 13.3332V4.6665H3.00016ZM5.66683 6.6665C6.03502 6.6665 6.3335 6.96498 6.3335 7.33317V11.3332C6.3335 11.7014 6.03502 11.9998 5.66683 11.9998C5.29864 11.9998 5.00016 11.7014 5.00016 11.3332V7.33317C5.00016 6.96498 5.29864 6.6665 5.66683 6.6665ZM9.00016 7.33317C9.00016 6.96498 8.70169 6.6665 8.3335 6.6665C7.96531 6.6665 7.66683 6.96498 7.66683 7.33317V11.3332C7.66683 11.7014 7.96531 11.9998 8.3335 11.9998C8.70169 11.9998 9.00016 11.7014 9.00016 11.3332V7.33317Z" fill="#66C5E1"/>
</svg>
