<svg width="24" height="24" viewBox="0 0 24 24" fill="none" xmlns="http://www.w3.org/2000/svg">
<path fill-rule="evenodd" clip-rule="evenodd" d="M11.9999 1C11.7347 1 11.4803 1.10536 11.2928 1.29289C11.1052 1.48043 10.9999 1.73478 10.9999 2V12C10.9999 12.5523 11.4476 13 11.9999 13H21.9999C22.5522 13 22.9999 12.5523 22.9999 12C22.9999 10.5555 22.7154 9.12506 22.1626 7.79048C21.6098 6.4559 20.7995 5.24327 19.7781 4.22183C18.7566 3.20038 17.544 2.39013 16.2094 1.83733C14.8748 1.28452 13.4444 1 11.9999 1ZM12.9999 11V3.05573C13.8385 3.14949 14.6614 3.3609 15.444 3.68508C16.536 4.13738 17.5281 4.80031 18.3638 5.63604C19.1996 6.47177 19.8625 7.46392 20.3148 8.55585C20.639 9.33849 20.8504 10.1614 20.9442 11H12.9999ZM8.39988 3.74654C8.90606 3.52564 9.13734 2.93623 8.91645 2.43004C8.69556 1.92386 8.10614 1.69258 7.59996 1.91347C5.95313 2.63212 4.50741 3.74324 3.38921 5.1497C2.271 6.55616 1.51435 8.21513 1.18541 9.98157C0.856473 11.748 0.965257 13.5681 1.50225 15.2828C2.03925 16.9975 2.98811 18.5545 4.26588 19.8178C5.54364 21.081 7.11141 22.0121 8.83212 22.5294C10.5528 23.0468 12.3741 23.1348 14.1366 22.7857C15.8992 22.4366 17.5494 21.6611 18.943 20.5269C20.3366 19.3927 21.4312 17.9344 22.131 16.2795C22.3461 15.7708 22.1081 15.1841 21.5994 14.969C21.0907 14.7539 20.504 14.9919 20.2889 15.5005C19.7163 16.8546 18.8208 18.0477 17.6806 18.9757C16.5403 19.9037 15.1902 20.5382 13.7481 20.8238C12.306 21.1095 10.8159 21.0375 9.40801 20.6142C8.00016 20.1908 6.71744 19.4291 5.67199 18.3955C4.62655 17.3619 3.85021 16.088 3.41085 14.6851C2.97149 13.2822 2.88248 11.793 3.15161 10.3477C3.42075 8.90244 4.03982 7.5451 4.95472 6.39436C5.86961 5.24362 7.05247 4.33452 8.39988 3.74654Z" fill="white"/>
</svg>
