<svg width="149" height="15" viewBox="0 0 149 15" fill="none" xmlns="http://www.w3.org/2000/svg">
<g clip-path="url(#clip0)">
<path d="M60.0625 3.30342H64.5031V15H67.8335V3.30342H72.2741V0.0769653H60.0625V3.30342Z" fill="#66C5E1"/>
<path d="M77.8023 0.0769653H74.4888V15H77.8023V0.0769653Z" fill="#66C5E1"/>
<path d="M103.64 0.0769653L98.6414 4.94688V0.0769653H95.3335V15H98.6414V9.53098L99.6501 8.5471L103.927 15H107.878L102.023 6.23307L108.357 0.0769653H103.64Z" fill="#66C5E1"/>
<path d="M109.996 15H121.188V11.7516H113.31V9.14072H119.469V5.91427H113.31V3.30342H121.188V0.0769653H109.996V15Z" fill="#66C5E1"/>
<path d="M123.386 3.23195H127.826V14.923H131.157V3.23195H135.597V0H123.386V3.23195Z" fill="#66C5E1"/>
<path d="M145.904 6.66726H145.848C145.502 6.60863 145.168 6.54451 144.845 6.47489L143.836 6.26602L142.805 6.05715L141.802 5.84828C140.19 5.502 140.19 4.80394 140.19 4.57309C140.199 4.35048 140.274 4.13527 140.407 3.95439C140.541 3.77352 140.726 3.63502 140.939 3.55623C141.492 3.30142 142.098 3.17535 142.709 3.18797C143.326 3.16867 143.939 3.30097 144.49 3.57272C144.743 3.71956 144.946 3.9348 145.076 4.19236C145.206 4.44992 145.257 4.73874 145.222 5.0238V5.32611H148.389V5.01831C148.434 4.26651 148.278 3.51624 147.935 2.84151C147.592 2.16678 147.075 1.59092 146.434 1.17075C145.326 0.46907 144.033 0.0956421 142.712 0.0956421C141.391 0.0956421 140.098 0.46907 138.99 1.17075C138.384 1.52212 137.883 2.02213 137.537 2.62099C137.191 3.21985 137.012 3.89668 137.017 4.58408C136.967 5.4303 137.207 6.26877 137.702 6.966C138.196 7.66324 138.915 8.17916 139.745 8.43165H139.79L140.832 8.668C141.199 8.75594 141.565 8.8274 141.92 8.89335L142.174 8.91534L142.906 9.06924C143.252 9.14253 143.596 9.21032 143.937 9.27261H144.095C145.521 9.64088 145.521 10.2455 145.521 10.4489C145.521 10.6944 145.441 10.9336 145.292 11.1315C145.143 11.3293 144.933 11.4753 144.693 11.5482C144.06 11.8059 143.377 11.9277 142.692 11.9054C142.005 11.9241 141.323 11.7966 140.692 11.5317C140.41 11.3928 140.179 11.1728 140.029 10.9014C139.88 10.63 139.82 10.3204 139.857 10.0146V9.73432H136.69V10.0146C136.641 10.7997 136.813 11.5829 137.189 12.2789C137.565 12.9749 138.129 13.5568 138.821 13.9611C139.985 14.6538 141.328 15.0067 142.692 14.978C144.054 15.0064 145.397 14.6679 146.575 13.9996C147.221 13.6522 147.759 13.1419 148.134 12.5222C148.509 11.9024 148.706 11.1959 148.705 10.4764C148.71 8.62952 147.764 7.34883 145.904 6.66726Z" fill="#66C5E1"/>
<path d="M91.3494 10.1246L91.1352 10.3335C90.6955 10.8049 90.1642 11.1865 89.5723 11.4563C88.9803 11.7262 88.3393 11.8788 87.6865 11.9055C86.5037 11.8884 85.3743 11.4226 84.5379 10.6068C83.7015 9.79095 83.2239 8.68936 83.2065 7.53574C83.1992 6.96187 83.3136 6.39273 83.5425 5.864C83.7713 5.33527 84.1097 4.85837 84.5364 4.46318C84.9405 4.04827 85.4288 3.72008 85.9702 3.49957C86.5116 3.27906 87.0942 3.17107 87.6808 3.18249C88.3327 3.20611 88.9732 3.35578 89.5652 3.62281C90.1572 3.88983 90.689 4.2689 91.1296 4.73801L91.3494 4.94688L93.1414 3.27044V2.31954C91.6855 0.914345 89.7288 0.112747 87.6808 0.0824585C85.6541 0.0868144 83.7116 0.874046 82.2785 2.27189C80.8454 3.66974 80.0383 5.56438 80.0338 7.54123C80.0339 9.0167 80.4827 10.459 81.3233 11.6857C82.1639 12.9123 83.3586 13.8683 84.7564 14.4325C86.1541 14.9968 87.692 15.1441 89.1755 14.8557C90.659 14.5673 92.0215 13.8562 93.0907 12.8124L93.1583 12.7464V11.823L91.3494 10.1246Z" fill="#66C5E1"/>
<path d="M40.6323 0.0769653V9.01431C40.6323 9.7636 40.3271 10.4822 39.7839 11.012C39.2407 11.5419 38.5039 11.8395 37.7357 11.8395C36.9675 11.8395 36.2308 11.5419 35.6876 11.012C35.1444 10.4822 34.8392 9.7636 34.8392 9.01431V0.0769653H34.0559C33.8948 0.0816868 33.7383 0.131273 33.6051 0.219875L31.7962 1.36315C31.7371 1.41366 31.6902 1.47636 31.6591 1.54671C31.6279 1.61706 31.6131 1.69329 31.6159 1.76989V9.01431C31.6159 10.6047 32.2636 12.13 33.4166 13.2546C34.5696 14.3792 36.1334 15.011 37.7639 15.011C39.3945 15.011 40.9583 14.3792 42.1112 13.2546C43.2642 12.13 43.912 10.6047 43.912 9.01431V0.0769653H40.6323Z" fill="#D92B3C"/>
<path d="M11.0753 0.0549927L7.72238 4.68306L4.39195 0.0549927H0.28949L6.06561 8.04693V14.978H9.39604V8.04693L15.1778 0.0549927H11.0753Z" fill="#D92B3C"/>
<path d="M56.2925 9.58042L55.5487 8.56906L55.436 8.42615C55.917 8.14707 56.3504 7.79658 56.7208 7.38731C57.105 6.95564 57.3967 6.45329 57.5787 5.90991C57.7607 5.36652 57.8293 4.79309 57.7805 4.22342C57.7316 3.65376 57.5663 3.09941 57.2943 2.59306C57.0223 2.0867 56.6491 1.6386 56.1967 1.27518C55.2281 0.47018 53.9922 0.0364565 52.7198 0.0549503H46.104V14.9615H49.4175V9.12421H50.6742C51.0298 9.08597 51.3894 9.14065 51.7162 9.28263C52.0429 9.42461 52.3251 9.64879 52.5338 9.93219L55.915 14.978H59.8596L56.2587 9.58042H56.3094H56.2925ZM49.4119 3.2869H52.7254C53.178 3.27758 53.6206 3.41697 53.9821 3.68265C54.1332 3.7836 54.2568 3.91895 54.3422 4.07697C54.4276 4.235 54.4722 4.41094 54.4722 4.58958C54.4722 4.76821 54.4276 4.94416 54.3422 5.10218C54.2568 5.26021 54.1332 5.39555 53.9821 5.4965C53.6223 5.7614 53.1817 5.90077 52.7311 5.89225H49.4175V3.2869H49.4119Z" fill="#D92B3C"/>
<path d="M25.7551 5.57346C26.1737 6.38441 26.3189 7.30358 26.1702 8.19982C26.0214 9.09607 25.5863 9.92358 24.9268 10.5643C24.3036 11.1651 23.5126 11.5734 22.6529 11.7381C21.7931 11.9029 20.9026 11.8169 20.0927 11.4908C19.2828 11.1647 18.5893 10.6131 18.099 9.90473C17.6088 9.1964 17.3434 8.36285 17.3361 7.50823C17.3292 6.93866 17.4427 6.37381 17.6696 5.84895C17.8964 5.32408 18.2318 4.85046 18.6547 4.45767C19.4132 3.71035 20.4262 3.26015 21.5021 3.19229C22.578 3.12442 23.642 3.4436 24.4928 4.0894C24.516 4.11336 24.544 4.13244 24.575 4.14548C24.606 4.15853 24.6394 4.16526 24.6732 4.16526C24.7069 4.16526 24.7404 4.15853 24.7714 4.14548C24.8024 4.13244 24.8303 4.11336 24.8535 4.0894C25.0057 3.941 26.5046 2.25356 26.6286 2.13264C26.6712 2.07886 26.6909 2.01112 26.6835 1.94353C26.6762 1.87595 26.6424 1.81374 26.5892 1.76987C25.2437 0.679379 23.5427 0.0944688 21.7936 0.120915C20.7883 0.114044 19.792 0.305238 18.8643 0.683035C17.9367 1.06083 17.0968 1.61745 16.395 2.31952C14.9929 3.71387 14.208 5.58929 14.209 7.54234C14.2101 9.49539 14.9971 11.37 16.4006 12.7629C17.4655 13.8015 18.822 14.509 20.2988 14.7961C21.7757 15.0832 23.3066 14.937 24.6983 14.3759C26.09 13.8148 27.28 12.864 28.118 11.6436C28.9561 10.4233 29.4045 8.98805 29.4068 7.51923C29.4148 6.23552 29.0746 4.97258 28.4206 3.85855C28.404 3.82993 28.3806 3.80556 28.3525 3.78741C28.3244 3.76926 28.2923 3.75784 28.2588 3.75409C28.2253 3.75034 28.1913 3.75436 28.1597 3.76583C28.1281 3.77729 28.0997 3.79588 28.0769 3.82007L25.8566 5.23268C25.826 5.2476 25.799 5.26853 25.7771 5.29413C25.7553 5.31973 25.7391 5.34946 25.7295 5.38146C25.72 5.41346 25.7174 5.44703 25.7218 5.48007C25.7262 5.51311 25.7375 5.5449 25.7551 5.57346Z" fill="#D92A3B"/>
</g>
<defs>
<clipPath id="clip0">
<rect width="148.421" height="15" fill="white" transform="translate(0.28949)"/>
</clipPath>
</defs>
</svg>
